dataset
version=1
nRows=28
nColumns=39
inDegrees=no
endheader
time	sternoclavicular_r2	sternoclavicular_r3	unrotscap_r3	unrotscap_r2	acromioclavicular_r2	acromioclavicular_r3	acromioclavicular_r1	unrothum_r1	unrothum_r3	unrothum_r2	elv_angle	shoulder_elv	shoulder1_r2	shoulder_rot	elbow_flexion	pro_sup	deviation	flexion	cmc_abduction	cmc_flexion	mp_flexion	ip_flexion	mcp2_flexion	mcp2_abduction	pm2_flexion	md2_flexion	mcp3_flexion	mcp3_abduction	pm3_flexion	md3_flexion	mcp4_flexion	mcp4_abduction	pm4_flexion	md4_flexion	mcp5_flexion	mcp5_abduction	pm5_flexion	md5_flexion
0.000000	-0.012686	-0.285713	0.140536	0.023677	0.001614	0.101092	-0.097103	-0.093168	-0.003278	0.065707	0.027903	0.027437	0.146525	0.146525	0.868395	0.921401	0.000000	0.000000	0.000000	0.000000	0.000000	0.000000	0.000000	0.000000	0.000000	0.000000	0.000000	0.000000	0.000000	0.000000	0.000000	0.000000	0.000000	0.000000	0.000000	0.000000	0.000000	0.000000
0.005000	-0.012725	-0.285723	0.140528	0.023803	0.001709	0.101240	-0.096963	-0.092950	-0.003151	0.065754	0.028025	0.027437	0.146525	0.146525	0.867671	0.924754	0.000000	0.000000	0.000000	0.000000	0.000000	0.000000	0.000000	0.000000	0.000000	0.000000	0.000000	0.000000	0.000000	0.000000	0.000000	0.000000	0.000000	0.000000	0.000000	0.000000	0.000000	0.000000
0.010000	-0.012763	-0.285733	0.140510	0.023926	0.001803	0.101384	-0.096813	-0.092740	-0.003006	0.065800	0.028149	0.027437	0.146525	0.146525	0.866909	0.928076	0.000000	0.000000	0.000000	0.000000	0.000000	0.000000	0.000000	0.000000	0.000000	0.000000	0.000000	0.000000	0.000000	0.000000	0.000000	0.000000	0.000000	0.000000	0.000000	0.000000	0.000000	0.000000
0.015000	-0.012803	-0.285744	0.140487	0.024047	0.001896	0.101528	-0.096658	-0.092533	-0.002854	0.065845	0.028273	0.027437	0.146525	0.146525	0.866111	0.931368	0.000000	0.000000	0.000000	0.000000	0.000000	0.000000	0.000000	0.000000	0.000000	0.000000	0.000000	0.000000	0.000000	0.000000	0.000000	0.000000	0.000000	0.000000	0.000000	0.000000	0.000000	0.000000
0.020000	-0.012842	-0.285758	0.140463	0.024167	0.001986	0.101673	-0.096498	-0.092324	-0.002700	0.065887	0.028396	0.027437	0.146525	0.146525	0.865278	0.934629	0.000000	0.000000	0.000000	0.000000	0.000000	0.000000	0.000000	0.000000	0.000000	0.000000	0.000000	0.000000	0.000000	0.000000	0.000000	0.000000	0.000000	0.000000	0.000000	0.000000	0.000000	0.000000
0.025000	-0.012882	-0.285775	0.140438	0.024285	0.002074	0.101820	-0.096337	-0.092111	-0.002547	0.065926	0.028517	0.027437	0.146525	0.146525	0.864413	0.937860	0.000000	0.000000	0.000000	0.000000	0.000000	0.000000	0.000000	0.000000	0.000000	0.000000	0.000000	0.000000	0.000000	0.000000	0.000000	0.000000	0.000000	0.000000	0.000000	0.000000	0.000000	0.000000
0.030000	-0.012922	-0.285795	0.140415	0.024401	0.002159	0.101970	-0.096175	-0.091895	-0.002396	0.065962	0.028635	0.027437	0.146525	0.146525	0.863519	0.941058	0.000000	0.000000	0.000000	0.000000	0.000000	0.000000	0.000000	0.000000	0.000000	0.000000	0.000000	0.000000	0.000000	0.000000	0.000000	0.000000	0.000000	0.000000	0.000000	0.000000	0.000000	0.000000
0.035000	-0.012963	-0.285818	0.140394	0.024513	0.002241	0.102122	-0.096013	-0.091675	-0.002251	0.065994	0.028748	0.027437	0.146525	0.146525	0.862597	0.944226	0.000000	0.000000	0.000000	0.000000	0.000000	0.000000	0.000000	0.000000	0.000000	0.000000	0.000000	0.000000	0.000000	0.000000	0.000000	0.000000	0.000000	0.000000	0.000000	0.000000	0.000000	0.000000
0.040000	-0.013003	-0.285845	0.140375	0.024623	0.002319	0.102276	-0.095853	-0.091451	-0.002112	0.066021	0.028855	0.027437	0.146525	0.146525	0.861653	0.947361	0.000000	0.000000	0.000000	0.000000	0.000000	0.000000	0.000000	0.000000	0.000000	0.000000	0.000000	0.000000	0.000000	0.000000	0.000000	0.000000	0.000000	0.000000	0.000000	0.000000	0.000000	0.000000
0.045000	-0.013043	-0.285876	0.140360	0.024727	0.002392	0.102432	-0.095695	-0.091223	-0.001982	0.066043	0.028956	0.027437	0.146525	0.146525	0.860688	0.950464	0.000000	0.000000	0.000000	0.000000	0.000000	0.000000	0.000000	0.000000	0.000000	0.000000	0.000000	0.000000	0.000000	0.000000	0.000000	0.000000	0.000000	0.000000	0.000000	0.000000	0.000000	0.000000
0.050000	-0.013082	-0.285910	0.140347	0.024827	0.002459	0.102589	-0.095540	-0.090992	-0.001861	0.066059	0.029049	0.027437	0.146525	0.146525	0.859707	0.953534	0.000000	0.000000	0.000000	0.000000	0.000000	0.000000	0.000000	0.000000	0.000000	0.000000	0.000000	0.000000	0.000000	0.000000	0.000000	0.000000	0.000000	0.000000	0.000000	0.000000	0.000000	0.000000
0.055000	-0.013121	-0.285949	0.140339	0.024920	0.002520	0.102746	-0.095389	-0.090759	-0.001750	0.066069	0.029133	0.027437	0.146525	0.146525	0.858713	0.956571	0.000000	0.000000	0.000000	0.000000	0.000000	0.000000	0.000000	0.000000	0.000000	0.000000	0.000000	0.000000	0.000000	0.000000	0.000000	0.000000	0.000000	0.000000	0.000000	0.000000	0.000000	0.000000
0.060000	-0.013159	-0.285993	0.140334	0.025006	0.002574	0.102904	-0.095243	-0.090525	-0.001652	0.066072	0.029207	0.027437	0.146525	0.146525	0.857711	0.959575	0.000000	0.000000	0.000000	0.000000	0.000000	0.000000	0.000000	0.000000	0.000000	0.000000	0.000000	0.000000	0.000000	0.000000	0.000000	0.000000	0.000000	0.000000	0.000000	0.000000	0.000000	0.000000
0.065000	-0.013196	-0.286040	0.140334	0.025084	0.002619	0.103062	-0.095102	-0.090289	-0.001567	0.066068	0.029270	0.027437	0.146525	0.146525	0.856706	0.962545	0.000000	0.000000	0.000000	0.000000	0.000000	0.000000	0.000000	0.000000	0.000000	0.000000	0.000000	0.000000	0.000000	0.000000	0.000000	0.000000	0.000000	0.000000	0.000000	0.000000	0.000000	0.000000
0.070000	-0.013231	-0.286093	0.140338	0.025153	0.002656	0.103218	-0.094969	-0.090054	-0.001497	0.066055	0.029320	0.027437	0.146525	0.146525	0.855701	0.965482	0.000000	0.000000	0.000000	0.000000	0.000000	0.000000	0.000000	0.000000	0.000000	0.000000	0.000000	0.000000	0.000000	0.000000	0.000000	0.000000	0.000000	0.000000	0.000000	0.000000	0.000000	0.000000
0.075000	-0.013265	-0.286150	0.140347	0.025212	0.002682	0.103373	-0.094843	-0.089819	-0.001443	0.066033	0.029357	0.027437	0.146525	0.146525	0.854703	0.968384	0.000000	0.000000	0.000000	0.000000	0.000000	0.000000	0.000000	0.000000	0.000000	0.000000	0.000000	0.000000	0.000000	0.000000	0.000000	0.000000	0.000000	0.000000	0.000000	0.000000	0.000000	0.000000
0.080000	-0.013297	-0.286212	0.140362	0.025259	0.002698	0.103525	-0.094726	-0.089586	-0.001407	0.066001	0.029379	0.027437	0.146525	0.146525	0.853717	0.971252	0.000000	0.000000	0.000000	0.000000	0.000000	0.000000	0.000000	0.000000	0.000000	0.000000	0.000000	0.000000	0.000000	0.000000	0.000000	0.000000	0.000000	0.000000	0.000000	0.000000	0.000000	0.000000
0.085000	-0.013327	-0.286279	0.140383	0.025294	0.002702	0.103674	-0.094618	-0.089356	-0.001391	0.065959	0.029385	0.027437	0.146525	0.146525	0.852748	0.974085	0.000000	0.000000	0.000000	0.000000	0.000000	0.000000	0.000000	0.000000	0.000000	0.000000	0.000000	0.000000	0.000000	0.000000	0.000000	0.000000	0.000000	0.000000	0.000000	0.000000	0.000000	0.000000
0.090000	-0.013354	-0.286350	0.140409	0.025316	0.002693	0.103819	-0.094522	-0.089129	-0.001395	0.065906	0.029374	0.027437	0.146525	0.146525	0.851802	0.976883	0.000000	0.000000	0.000000	0.000000	0.000000	0.000000	0.000000	0.000000	0.000000	0.000000	0.000000	0.000000	0.000000	0.000000	0.000000	0.000000	0.000000	0.000000	0.000000	0.000000	0.000000	0.000000
0.095000	-0.013379	-0.286427	0.140441	0.025323	0.002670	0.103959	-0.094438	-0.088907	-0.001422	0.065841	0.029344	0.027437	0.146525	0.146525	0.850885	0.979645	0.000000	0.000000	0.000000	0.000000	0.000000	0.000000	0.000000	0.000000	0.000000	0.000000	0.000000	0.000000	0.000000	0.000000	0.000000	0.000000	0.000000	0.000000	0.000000	0.000000	0.000000	0.000000
0.100000	-0.013401	-0.286509	0.140481	0.025314	0.002633	0.104094	-0.094366	-0.088691	-0.001472	0.065764	0.029294	0.027437	0.146525	0.146525	0.850004	0.982373	0.000000	0.000000	0.000000	0.000000	0.000000	0.000000	0.000000	0.000000	0.000000	0.000000	0.000000	0.000000	0.000000	0.000000	0.000000	0.000000	0.000000	0.000000	0.000000	0.000000	0.000000	0.000000
0.105000	-0.013420	-0.286596	0.140526	0.025289	0.002581	0.104222	-0.094309	-0.088482	-0.001547	0.065674	0.029223	0.027437	0.146525	0.146525	0.849165	0.985064	0.000000	0.000000	0.000000	0.000000	0.000000	0.000000	0.000000	0.000000	0.000000	0.000000	0.000000	0.000000	0.000000	0.000000	0.000000	0.000000	0.000000	0.000000	0.000000	0.000000	0.000000	0.000000
0.110000	-0.013435	-0.286687	0.140579	0.025246	0.002511	0.104343	-0.094267	-0.088281	-0.001649	0.065570	0.029129	0.027437	0.146525	0.146525	0.848376	0.987720	0.000000	0.000000	0.000000	0.000000	0.000000	0.000000	0.000000	0.000000	0.000000	0.000000	0.000000	0.000000	0.000000	0.000000	0.000000	0.000000	0.000000	0.000000	0.000000	0.000000	0.000000	0.000000
0.115000	-0.013446	-0.286784	0.140639	0.025183	0.002424	0.104455	-0.094241	-0.088089	-0.001780	0.065452	0.029012	0.027437	0.146525	0.146525	0.847643	0.990340	0.000000	0.000000	0.000000	0.000000	0.000000	0.000000	0.000000	0.000000	0.000000	0.000000	0.000000	0.000000	0.000000	0.000000	0.000000	0.000000	0.000000	0.000000	0.000000	0.000000	0.000000	0.000000
0.120000	-0.013454	-0.286885	0.140707	0.025101	0.002319	0.104558	-0.094233	-0.087908	-0.001940	0.065319	0.028870	0.027437	0.146525	0.146525	0.846973	0.992924	0.000000	0.000000	0.000000	0.000000	0.000000	0.000000	0.000000	0.000000	0.000000	0.000000	0.000000	0.000000	0.000000	0.000000	0.000000	0.000000	0.000000	0.000000	0.000000	0.000000	0.000000	0.000000
0.125000	-0.013456	-0.286991	0.140782	0.024997	0.002195	0.104650	-0.094243	-0.087739	-0.002130	0.065170	0.028701	0.027437	0.146525	0.146525	0.846375	0.995471	0.000000	0.000000	0.000000	0.000000	0.000000	0.000000	0.000000	0.000000	0.000000	0.000000	0.000000	0.000000	0.000000	0.000000	0.000000	0.000000	0.000000	0.000000	0.000000	0.000000	0.000000	0.000000
0.130000	-0.013455	-0.287101	0.140865	0.024871	0.002050	0.104732	-0.094273	-0.087584	-0.002353	0.065005	0.028506	0.027437	0.146525	0.146525	0.845856	0.997982	0.000000	0.000000	0.000000	0.000000	0.000000	0.000000	0.000000	0.000000	0.000000	0.000000	0.000000	0.000000	0.000000	0.000000	0.000000	0.000000	0.000000	0.000000	0.000000	0.000000	0.000000	0.000000
0.135000	-0.013448	-0.287216	0.140956	0.024722	0.001884	0.104801	-0.094323	-0.087443	-0.002610	0.064824	0.028282	0.027437	0.146525	0.146525	0.845423	1.000457	0.000000	0.000000	0.000000	0.000000	0.000000	0.000000	0.000000	0.000000	0.000000	0.000000	0.000000	0.000000	0.000000	0.000000	0.000000	0.000000	0.000000	0.000000	0.000000	0.000000	0.000000	0.000000
